ISO-10303-21;
HEADER;
FILE_DESCRIPTION(('ViewDefinition[DesignTransferView]'),'2;1');
FILE_NAME('pg-e-engineering-structure.ifc','2026-08-30T21:00:00+08:00',('IFC ClashTrace contributors'),('Open synthetic engineering-context data'),'IfcOpenShell 0.8.5','IFC ClashTrace PG-E realistic building generator','CC0-1.0');
FILE_SCHEMA(('IFC4'));
ENDSEC;
DATA;
#1=IFCPROJECT('2MmcQUE9nGzvB0Szx$7HB2',$,'PG-E One-storey Community Clinic',$,$,$,'PG-E synthetic engineering-context UAT',(#14),#9);
#2=IFCSITE('05Pvyc1$DMRQXBsVCK4qu1',$,'Synthetic Urban Infill Site',$,$,$,$,$,$,$,$,$,$,$);
#3=IFCBUILDING('0KpusynFLTDun$4yjSQbmQ',$,'Community Clinic Demonstration Building',$,$,$,$,$,$,$,$,$);
#4=IFCBUILDINGSTOREY('2DNX6W2jrMjuk1v8sRSjuc',$,'Ground Floor \X2\00B7\X0\ Consultation and Services',$,$,$,$,$,$,0.);
#5=IFCRELAGGREGATES('11j2qKrmHKwgGPAkisosjl',$,$,$,#1,(#2));
#6=IFCRELAGGREGATES('256obxEpjKKRJ4pqWUqGSJ',$,$,$,#2,(#3));
#7=IFCRELAGGREGATES('2hVOywgUDGaPh7ml7gmq46',$,$,$,#3,(#4));
#8=IFCSIUNIT(*,.LENGTHUNIT.,$,.METRE.);
#9=IFCUNITASSIGNMENT((#8));
#10=IFCCARTESIANPOINT((0.,0.,0.));
#11=IFCDIRECTION((0.,0.,1.));
#12=IFCDIRECTION((1.,0.,0.));
#13=IFCAXIS2PLACEMENT3D(#10,#11,#12);
#14=IFCGEOMETRICREPRESENTATIONCONTEXT($,'Model',3,1.0000000000000001E-05,#13,$);
#15=IFCGEOMETRICREPRESENTATIONSUBCONTEXT('Body','Model',*,*,*,*,#14,$,.MODEL_VIEW.,$);
#16=IFCWALL('34sFxniAPQVPCJrjyzponM',$,'Exterior wall \X2\00B7\X0\ South facade',$,$,#32,#27,$,$);
#17=IFCCARTESIANPOINTLIST2D(((0.,0.),(0.,0.20000000000000001),(12.,0.20000000000000001),(12.,0.),(0.,0.)));
#18=IFCINDEXEDPOLYCURVE(#17,$,.F.);
#19=IFCDIRECTION((0.,0.,1.));
#20=IFCARBITRARYCLOSEDPROFILEDEF(.AREA.,$,#18);
#21=IFCCARTESIANPOINT((0.,0.,0.));
#22=IFCDIRECTION((0.,0.,1.));
#23=IFCDIRECTION((1.,0.,0.));
#24=IFCAXIS2PLACEMENT3D(#21,#22,#23);
#25=IFCEXTRUDEDAREASOLID(#20,#24,#19,3.2000000000000002);
#26=IFCSHAPEREPRESENTATION(#15,'Body','SweptSolid',(#25));
#27=IFCPRODUCTDEFINITIONSHAPE($,$,(#26));
#28=IFCCARTESIANPOINT((0.,0.,0.));
#29=IFCDIRECTION((0.,0.,1.));
#30=IFCDIRECTION((1.,0.,0.));
#31=IFCAXIS2PLACEMENT3D(#28,#29,#30);
#32=IFCLOCALPLACEMENT($,#31);
#33=IFCWALL('0H9xtBHlTUkAfAOGVZx14P',$,'Exterior wall \X2\00B7\X0\ North facade',$,$,#49,#44,$,$);
#34=IFCCARTESIANPOINTLIST2D(((0.,0.),(0.,0.20000000000000001),(12.,0.20000000000000001),(12.,0.),(0.,0.)));
#35=IFCINDEXEDPOLYCURVE(#34,$,.F.);
#36=IFCDIRECTION((0.,0.,1.));
#37=IFCARBITRARYCLOSEDPROFILEDEF(.AREA.,$,#35);
#38=IFCCARTESIANPOINT((0.,0.,0.));
#39=IFCDIRECTION((0.,0.,1.));
#40=IFCDIRECTION((1.,0.,0.));
#41=IFCAXIS2PLACEMENT3D(#38,#39,#40);
#42=IFCEXTRUDEDAREASOLID(#37,#41,#36,3.2000000000000002);
#43=IFCSHAPEREPRESENTATION(#15,'Body','SweptSolid',(#42));
#44=IFCPRODUCTDEFINITIONSHAPE($,$,(#43));
#45=IFCCARTESIANPOINT((0.,7.7999999999999998,0.));
#46=IFCDIRECTION((0.,0.,1.));
#47=IFCDIRECTION((1.,0.,0.));
#48=IFCAXIS2PLACEMENT3D(#45,#46,#47);
#49=IFCLOCALPLACEMENT($,#48);
#50=IFCWALL('1XiKlwC9zIoOzxDOTakj58',$,'Exterior wall \X2\00B7\X0\ West facade',$,$,#66,#61,$,$);
#51=IFCCARTESIANPOINTLIST2D(((0.,0.),(0.,0.20000000000000001),(8.,0.20000000000000001),(8.,0.),(0.,0.)));
#52=IFCINDEXEDPOLYCURVE(#51,$,.F.);
#53=IFCDIRECTION((0.,0.,1.));
#54=IFCARBITRARYCLOSEDPROFILEDEF(.AREA.,$,#52);
#55=IFCCARTESIANPOINT((0.,0.,0.));
#56=IFCDIRECTION((0.,0.,1.));
#57=IFCDIRECTION((1.,0.,0.));
#58=IFCAXIS2PLACEMENT3D(#55,#56,#57);
#59=IFCEXTRUDEDAREASOLID(#54,#58,#53,3.2000000000000002);
#60=IFCSHAPEREPRESENTATION(#15,'Body','SweptSolid',(#59));
#61=IFCPRODUCTDEFINITIONSHAPE($,$,(#60));
#62=IFCCARTESIANPOINT((0.20000000000000001,0.,0.));
#63=IFCDIRECTION((0.,0.,1.));
#64=IFCDIRECTION((6.123233995736766E-17,1.,0.));
#65=IFCAXIS2PLACEMENT3D(#62,#63,#64);
#66=IFCLOCALPLACEMENT($,#65);
#67=IFCWALL('3z5HLuQEfUfRM3FTyV9rzJ',$,'Exterior wall \X2\00B7\X0\ East facade',$,$,#83,#78,$,$);
#68=IFCCARTESIANPOINTLIST2D(((0.,0.),(0.,0.20000000000000001),(8.,0.20000000000000001),(8.,0.),(0.,0.)));
#69=IFCINDEXEDPOLYCURVE(#68,$,.F.);
#70=IFCDIRECTION((0.,0.,1.));
#71=IFCARBITRARYCLOSEDPROFILEDEF(.AREA.,$,#69);
#72=IFCCARTESIANPOINT((0.,0.,0.));
#73=IFCDIRECTION((0.,0.,1.));
#74=IFCDIRECTION((1.,0.,0.));
#75=IFCAXIS2PLACEMENT3D(#72,#73,#74);
#76=IFCEXTRUDEDAREASOLID(#71,#75,#70,3.2000000000000002);
#77=IFCSHAPEREPRESENTATION(#15,'Body','SweptSolid',(#76));
#78=IFCPRODUCTDEFINITIONSHAPE($,$,(#77));
#79=IFCCARTESIANPOINT((12.,0.,0.));
#80=IFCDIRECTION((0.,0.,1.));
#81=IFCDIRECTION((6.123233995736766E-17,1.,0.));
#82=IFCAXIS2PLACEMENT3D(#79,#80,#81);
#83=IFCLOCALPLACEMENT($,#82);
#84=IFCWALL('2dERsIBLDG$x0OsH9eU2Is',$,'Consultation partition W1 \X2\00B7\X0\ South segment',$,$,#100,#95,$,$);
#85=IFCCARTESIANPOINTLIST2D(((0.,0.),(0.,0.14999999999999999),(3.2000000000000002,0.14999999999999999),(3.2000000000000002,0.),(0.,0.)));
#86=IFCINDEXEDPOLYCURVE(#85,$,.F.);
#87=IFCDIRECTION((0.,0.,1.));
#88=IFCARBITRARYCLOSEDPROFILEDEF(.AREA.,$,#86);
#89=IFCCARTESIANPOINT((0.,0.,0.));
#90=IFCDIRECTION((0.,0.,1.));
#91=IFCDIRECTION((1.,0.,0.));
#92=IFCAXIS2PLACEMENT3D(#89,#90,#91);
#93=IFCEXTRUDEDAREASOLID(#88,#92,#87,3.2000000000000002);
#94=IFCSHAPEREPRESENTATION(#15,'Body','SweptSolid',(#93));
#95=IFCPRODUCTDEFINITIONSHAPE($,$,(#94));
#96=IFCCARTESIANPOINT((4.6500000000000004,0.20000000000000001,0.));
#97=IFCDIRECTION((0.,0.,1.));
#98=IFCDIRECTION((6.123233995736766E-17,1.,0.));
#99=IFCAXIS2PLACEMENT3D(#96,#97,#98);
#100=IFCLOCALPLACEMENT($,#99);
#101=IFCWALL('0CQAR4$6PQdhoWa$QfwkxM',$,'Consultation partition W1 \X2\00B7\X0\ North segment',$,$,#117,#112,$,$);
#102=IFCCARTESIANPOINTLIST2D(((0.,0.),(0.,0.14999999999999999),(3.6000000000000001,0.14999999999999999),(3.6000000000000001,0.),(0.,0.)));
#103=IFCINDEXEDPOLYCURVE(#102,$,.F.);
#104=IFCDIRECTION((0.,0.,1.));
#105=IFCARBITRARYCLOSEDPROFILEDEF(.AREA.,$,#103);
#106=IFCCARTESIANPOINT((0.,0.,0.));
#107=IFCDIRECTION((0.,0.,1.));
#108=IFCDIRECTION((1.,0.,0.));
#109=IFCAXIS2PLACEMENT3D(#106,#107,#108);
#110=IFCEXTRUDEDAREASOLID(#105,#109,#104,3.2000000000000002);
#111=IFCSHAPEREPRESENTATION(#15,'Body','SweptSolid',(#110));
#112=IFCPRODUCTDEFINITIONSHAPE($,$,(#111));
#113=IFCCARTESIANPOINT((4.6500000000000004,4.2000000000000002,0.));
#114=IFCDIRECTION((0.,0.,1.));
#115=IFCDIRECTION((6.123233995736766E-17,1.,0.));
#116=IFCAXIS2PLACEMENT3D(#113,#114,#115);
#117=IFCLOCALPLACEMENT($,#116);
#118=IFCWALL('2RLrWAcyfQJgp2ZquX8YMF',$,'Consultation partition W2 \X2\00B7\X0\ South segment',$,$,#134,#129,$,$);
#119=IFCCARTESIANPOINTLIST2D(((0.,0.),(0.,0.14999999999999999),(3.2000000000000002,0.14999999999999999),(3.2000000000000002,0.),(0.,0.)));
#120=IFCINDEXEDPOLYCURVE(#119,$,.F.);
#121=IFCDIRECTION((0.,0.,1.));
#122=IFCARBITRARYCLOSEDPROFILEDEF(.AREA.,$,#120);
#123=IFCCARTESIANPOINT((0.,0.,0.));
#124=IFCDIRECTION((0.,0.,1.));
#125=IFCDIRECTION((1.,0.,0.));
#126=IFCAXIS2PLACEMENT3D(#123,#124,#125);
#127=IFCEXTRUDEDAREASOLID(#122,#126,#121,3.2000000000000002);
#128=IFCSHAPEREPRESENTATION(#15,'Body','SweptSolid',(#127));
#129=IFCPRODUCTDEFINITIONSHAPE($,$,(#128));
#130=IFCCARTESIANPOINT((8.1500000000000004,0.20000000000000001,0.));
#131=IFCDIRECTION((0.,0.,1.));
#132=IFCDIRECTION((6.123233995736766E-17,1.,0.));
#133=IFCAXIS2PLACEMENT3D(#130,#131,#132);
#134=IFCLOCALPLACEMENT($,#133);
#135=IFCWALL('25u06_Rj9SbwxNUAPp1Qkn',$,'Consultation partition W2 \X2\00B7\X0\ North segment',$,$,#151,#146,$,$);
#136=IFCCARTESIANPOINTLIST2D(((0.,0.),(0.,0.14999999999999999),(3.6000000000000001,0.14999999999999999),(3.6000000000000001,0.),(0.,0.)));
#137=IFCINDEXEDPOLYCURVE(#136,$,.F.);
#138=IFCDIRECTION((0.,0.,1.));
#139=IFCARBITRARYCLOSEDPROFILEDEF(.AREA.,$,#137);
#140=IFCCARTESIANPOINT((0.,0.,0.));
#141=IFCDIRECTION((0.,0.,1.));
#142=IFCDIRECTION((1.,0.,0.));
#143=IFCAXIS2PLACEMENT3D(#140,#141,#142);
#144=IFCEXTRUDEDAREASOLID(#139,#143,#138,3.2000000000000002);
#145=IFCSHAPEREPRESENTATION(#15,'Body','SweptSolid',(#144));
#146=IFCPRODUCTDEFINITIONSHAPE($,$,(#145));
#147=IFCCARTESIANPOINT((8.1500000000000004,4.2000000000000002,0.));
#148=IFCDIRECTION((0.,0.,1.));
#149=IFCDIRECTION((6.123233995736766E-17,1.,0.));
#150=IFCAXIS2PLACEMENT3D(#147,#148,#149);
#151=IFCLOCALPLACEMENT($,#150);
#152=IFCBEAM('2sVZe14hXS5eGoAOnHmBLs',$,'Primary beam \X2\00B7\X0\ Grid B corridor',$,$,#168,#163,$,$);
#153=IFCCARTESIANPOINTLIST2D(((0.,0.),(0.,0.29999999999999999),(11.6,0.29999999999999999),(11.6,0.),(0.,0.)));
#154=IFCINDEXEDPOLYCURVE(#153,$,.F.);
#155=IFCDIRECTION((0.,0.,1.));
#156=IFCARBITRARYCLOSEDPROFILEDEF(.AREA.,$,#154);
#157=IFCCARTESIANPOINT((0.,0.,0.));
#158=IFCDIRECTION((0.,0.,1.));
#159=IFCDIRECTION((1.,0.,0.));
#160=IFCAXIS2PLACEMENT3D(#157,#158,#159);
#161=IFCEXTRUDEDAREASOLID(#156,#160,#155,0.40000000000000002);
#162=IFCSHAPEREPRESENTATION(#15,'Body','SweptSolid',(#161));
#163=IFCPRODUCTDEFINITIONSHAPE($,$,(#162));
#164=IFCCARTESIANPOINT((0.20000000000000001,3.8500000000000001,2.7999999999999998));
#165=IFCDIRECTION((0.,0.,1.));
#166=IFCDIRECTION((1.,0.,0.));
#167=IFCAXIS2PLACEMENT3D(#164,#165,#166);
#168=IFCLOCALPLACEMENT($,#167);
#169=IFCBEAM('38TDFJ4dnPZA6kQy3JMQ6s',$,'Secondary beam \X2\00B7\X0\ Grid 2',$,$,#185,#180,$,$);
#170=IFCCARTESIANPOINTLIST2D(((0.,0.),(0.,0.29999999999999999),(7.5999999999999996,0.29999999999999999),(7.5999999999999996,0.),(0.,0.)));
#171=IFCINDEXEDPOLYCURVE(#170,$,.F.);
#172=IFCDIRECTION((0.,0.,1.));
#173=IFCARBITRARYCLOSEDPROFILEDEF(.AREA.,$,#171);
#174=IFCCARTESIANPOINT((0.,0.,0.));
#175=IFCDIRECTION((0.,0.,1.));
#176=IFCDIRECTION((1.,0.,0.));
#177=IFCAXIS2PLACEMENT3D(#174,#175,#176);
#178=IFCEXTRUDEDAREASOLID(#173,#177,#172,0.40000000000000002);
#179=IFCSHAPEREPRESENTATION(#15,'Body','SweptSolid',(#178));
#180=IFCPRODUCTDEFINITIONSHAPE($,$,(#179));
#181=IFCCARTESIANPOINT((4.1500000000000004,0.20000000000000001,2.7999999999999998));
#182=IFCDIRECTION((0.,0.,1.));
#183=IFCDIRECTION((6.123233995736766E-17,1.,0.));
#184=IFCAXIS2PLACEMENT3D(#181,#182,#183);
#185=IFCLOCALPLACEMENT($,#184);
#186=IFCBEAM('1HABFvMxrRSR3lP7nfl1Kr',$,'Secondary beam \X2\00B7\X0\ Grid 3',$,$,#202,#197,$,$);
#187=IFCCARTESIANPOINTLIST2D(((0.,0.),(0.,0.29999999999999999),(7.5999999999999996,0.29999999999999999),(7.5999999999999996,0.),(0.,0.)));
#188=IFCINDEXEDPOLYCURVE(#187,$,.F.);
#189=IFCDIRECTION((0.,0.,1.));
#190=IFCARBITRARYCLOSEDPROFILEDEF(.AREA.,$,#188);
#191=IFCCARTESIANPOINT((0.,0.,0.));
#192=IFCDIRECTION((0.,0.,1.));
#193=IFCDIRECTION((1.,0.,0.));
#194=IFCAXIS2PLACEMENT3D(#191,#192,#193);
#195=IFCEXTRUDEDAREASOLID(#190,#194,#189,0.40000000000000002);
#196=IFCSHAPEREPRESENTATION(#15,'Body','SweptSolid',(#195));
#197=IFCPRODUCTDEFINITIONSHAPE($,$,(#196));
#198=IFCCARTESIANPOINT((8.1500000000000004,0.20000000000000001,2.7999999999999998));
#199=IFCDIRECTION((0.,0.,1.));
#200=IFCDIRECTION((6.123233995736766E-17,1.,0.));
#201=IFCAXIS2PLACEMENT3D(#198,#199,#200);
#202=IFCLOCALPLACEMENT($,#201);
#203=IFCSLAB('262JAIplLHo8L_bPJVzszx',$,'Ground floor slab',$,$,#219,#214,$,.FLOOR.);
#204=IFCCARTESIANPOINTLIST2D(((0.,0.),(0.,8.),(12.,8.),(12.,0.),(0.,0.)));
#205=IFCINDEXEDPOLYCURVE(#204,$,.F.);
#206=IFCDIRECTION((0.,0.,1.));
#207=IFCARBITRARYCLOSEDPROFILEDEF(.AREA.,$,#205);
#208=IFCCARTESIANPOINT((0.,0.,0.));
#209=IFCDIRECTION((0.,0.,1.));
#210=IFCDIRECTION((1.,0.,0.));
#211=IFCAXIS2PLACEMENT3D(#208,#209,#210);
#212=IFCEXTRUDEDAREASOLID(#207,#211,#206,0.20000000000000001);
#213=IFCSHAPEREPRESENTATION(#15,'Body','SweptSolid',(#212));
#214=IFCPRODUCTDEFINITIONSHAPE($,$,(#213));
#215=IFCCARTESIANPOINT((0.,0.,-0.20000000000000001));
#216=IFCDIRECTION((0.,0.,1.));
#217=IFCDIRECTION((1.,0.,0.));
#218=IFCAXIS2PLACEMENT3D(#215,#216,#217);
#219=IFCLOCALPLACEMENT($,#218);
#220=IFCCOLUMN('1IaBXY25TLShBckOZRsRJb',$,'Column A1',$,$,#236,#231,$,$);
#221=IFCCARTESIANPOINTLIST2D(((0.,0.),(0.,0.29999999999999999),(0.29999999999999999,0.29999999999999999),(0.29999999999999999,0.),(0.,0.)));
#222=IFCINDEXEDPOLYCURVE(#221,$,.F.);
#223=IFCDIRECTION((0.,0.,1.));
#224=IFCARBITRARYCLOSEDPROFILEDEF(.AREA.,$,#222);
#225=IFCCARTESIANPOINT((0.,0.,0.));
#226=IFCDIRECTION((0.,0.,1.));
#227=IFCDIRECTION((1.,0.,0.));
#228=IFCAXIS2PLACEMENT3D(#225,#226,#227);
#229=IFCEXTRUDEDAREASOLID(#224,#228,#223,3.2000000000000002);
#230=IFCSHAPEREPRESENTATION(#15,'Body','SweptSolid',(#229));
#231=IFCPRODUCTDEFINITIONSHAPE($,$,(#230));
#232=IFCCARTESIANPOINT((0.20000000000000001,0.20000000000000001,0.));
#233=IFCDIRECTION((0.,0.,1.));
#234=IFCDIRECTION((1.,0.,0.));
#235=IFCAXIS2PLACEMENT3D(#232,#233,#234);
#236=IFCLOCALPLACEMENT($,#235);
#237=IFCCOLUMN('0FNhPumKLKjPFNWeEzYY6V',$,'Column A4',$,$,#253,#248,$,$);
#238=IFCCARTESIANPOINTLIST2D(((0.,0.),(0.,0.29999999999999999),(0.29999999999999999,0.29999999999999999),(0.29999999999999999,0.),(0.,0.)));
#239=IFCINDEXEDPOLYCURVE(#238,$,.F.);
#240=IFCDIRECTION((0.,0.,1.));
#241=IFCARBITRARYCLOSEDPROFILEDEF(.AREA.,$,#239);
#242=IFCCARTESIANPOINT((0.,0.,0.));
#243=IFCDIRECTION((0.,0.,1.));
#244=IFCDIRECTION((1.,0.,0.));
#245=IFCAXIS2PLACEMENT3D(#242,#243,#244);
#246=IFCEXTRUDEDAREASOLID(#241,#245,#240,3.2000000000000002);
#247=IFCSHAPEREPRESENTATION(#15,'Body','SweptSolid',(#246));
#248=IFCPRODUCTDEFINITIONSHAPE($,$,(#247));
#249=IFCCARTESIANPOINT((11.5,0.20000000000000001,0.));
#250=IFCDIRECTION((0.,0.,1.));
#251=IFCDIRECTION((1.,0.,0.));
#252=IFCAXIS2PLACEMENT3D(#249,#250,#251);
#253=IFCLOCALPLACEMENT($,#252);
#254=IFCCOLUMN('06SRz3kCfMUuE$8dtCLy19',$,'Column C1',$,$,#270,#265,$,$);
#255=IFCCARTESIANPOINTLIST2D(((0.,0.),(0.,0.29999999999999999),(0.29999999999999999,0.29999999999999999),(0.29999999999999999,0.),(0.,0.)));
#256=IFCINDEXEDPOLYCURVE(#255,$,.F.);
#257=IFCDIRECTION((0.,0.,1.));
#258=IFCARBITRARYCLOSEDPROFILEDEF(.AREA.,$,#256);
#259=IFCCARTESIANPOINT((0.,0.,0.));
#260=IFCDIRECTION((0.,0.,1.));
#261=IFCDIRECTION((1.,0.,0.));
#262=IFCAXIS2PLACEMENT3D(#259,#260,#261);
#263=IFCEXTRUDEDAREASOLID(#258,#262,#257,3.2000000000000002);
#264=IFCSHAPEREPRESENTATION(#15,'Body','SweptSolid',(#263));
#265=IFCPRODUCTDEFINITIONSHAPE($,$,(#264));
#266=IFCCARTESIANPOINT((0.20000000000000001,7.5,0.));
#267=IFCDIRECTION((0.,0.,1.));
#268=IFCDIRECTION((1.,0.,0.));
#269=IFCAXIS2PLACEMENT3D(#266,#267,#268);
#270=IFCLOCALPLACEMENT($,#269);
#271=IFCCOLUMN('1j8_NAfSHTxRdXf76eFP7i',$,'Column C4',$,$,#287,#282,$,$);
#272=IFCCARTESIANPOINTLIST2D(((0.,0.),(0.,0.29999999999999999),(0.29999999999999999,0.29999999999999999),(0.29999999999999999,0.),(0.,0.)));
#273=IFCINDEXEDPOLYCURVE(#272,$,.F.);
#274=IFCDIRECTION((0.,0.,1.));
#275=IFCARBITRARYCLOSEDPROFILEDEF(.AREA.,$,#273);
#276=IFCCARTESIANPOINT((0.,0.,0.));
#277=IFCDIRECTION((0.,0.,1.));
#278=IFCDIRECTION((1.,0.,0.));
#279=IFCAXIS2PLACEMENT3D(#276,#277,#278);
#280=IFCEXTRUDEDAREASOLID(#275,#279,#274,3.2000000000000002);
#281=IFCSHAPEREPRESENTATION(#15,'Body','SweptSolid',(#280));
#282=IFCPRODUCTDEFINITIONSHAPE($,$,(#281));
#283=IFCCARTESIANPOINT((11.5,7.5,0.));
#284=IFCDIRECTION((0.,0.,1.));
#285=IFCDIRECTION((1.,0.,0.));
#286=IFCAXIS2PLACEMENT3D(#283,#284,#285);
#287=IFCLOCALPLACEMENT($,#286);
#288=IFCCOLUMN('3INfVLFqbRb9RKQDr1Y3Z1',$,'Column B2',$,$,#304,#299,$,$);
#289=IFCCARTESIANPOINTLIST2D(((0.,0.),(0.,0.29999999999999999),(0.29999999999999999,0.29999999999999999),(0.29999999999999999,0.),(0.,0.)));
#290=IFCINDEXEDPOLYCURVE(#289,$,.F.);
#291=IFCDIRECTION((0.,0.,1.));
#292=IFCARBITRARYCLOSEDPROFILEDEF(.AREA.,$,#290);
#293=IFCCARTESIANPOINT((0.,0.,0.));
#294=IFCDIRECTION((0.,0.,1.));
#295=IFCDIRECTION((1.,0.,0.));
#296=IFCAXIS2PLACEMENT3D(#293,#294,#295);
#297=IFCEXTRUDEDAREASOLID(#292,#296,#291,3.2000000000000002);
#298=IFCSHAPEREPRESENTATION(#15,'Body','SweptSolid',(#297));
#299=IFCPRODUCTDEFINITIONSHAPE($,$,(#298));
#300=IFCCARTESIANPOINT((3.8500000000000001,3.8500000000000001,0.));
#301=IFCDIRECTION((0.,0.,1.));
#302=IFCDIRECTION((1.,0.,0.));
#303=IFCAXIS2PLACEMENT3D(#300,#301,#302);
#304=IFCLOCALPLACEMENT($,#303);
#305=IFCCOLUMN('0NSwgtlurRAAXYDNCjq6uO',$,'Column B3',$,$,#321,#316,$,$);
#306=IFCCARTESIANPOINTLIST2D(((0.,0.),(0.,0.29999999999999999),(0.29999999999999999,0.29999999999999999),(0.29999999999999999,0.),(0.,0.)));
#307=IFCINDEXEDPOLYCURVE(#306,$,.F.);
#308=IFCDIRECTION((0.,0.,1.));
#309=IFCARBITRARYCLOSEDPROFILEDEF(.AREA.,$,#307);
#310=IFCCARTESIANPOINT((0.,0.,0.));
#311=IFCDIRECTION((0.,0.,1.));
#312=IFCDIRECTION((1.,0.,0.));
#313=IFCAXIS2PLACEMENT3D(#310,#311,#312);
#314=IFCEXTRUDEDAREASOLID(#309,#313,#308,3.2000000000000002);
#315=IFCSHAPEREPRESENTATION(#15,'Body','SweptSolid',(#314));
#316=IFCPRODUCTDEFINITIONSHAPE($,$,(#315));
#317=IFCCARTESIANPOINT((7.8499999999999996,3.8500000000000001,0.));
#318=IFCDIRECTION((0.,0.,1.));
#319=IFCDIRECTION((1.,0.,0.));
#320=IFCAXIS2PLACEMENT3D(#317,#318,#319);
#321=IFCLOCALPLACEMENT($,#320);
#322=IFCGRID('3tpszTz4fS4wkpehOHmG3R',$,'Structural grid A-C / 1-4',$,$,$,$,(#326,#330,#334),(#338,#342,#346,#350),$,$);
#323=IFCCARTESIANPOINT((0.,0.));
#324=IFCCARTESIANPOINT((12.,0.));
#325=IFCPOLYLINE((#323,#324));
#326=IFCGRIDAXIS('A',#325,.T.);
#327=IFCCARTESIANPOINT((0.,4.));
#328=IFCCARTESIANPOINT((12.,4.));
#329=IFCPOLYLINE((#327,#328));
#330=IFCGRIDAXIS('B',#329,.T.);
#331=IFCCARTESIANPOINT((0.,8.));
#332=IFCCARTESIANPOINT((12.,8.));
#333=IFCPOLYLINE((#331,#332));
#334=IFCGRIDAXIS('C',#333,.T.);
#335=IFCCARTESIANPOINT((0.,0.));
#336=IFCCARTESIANPOINT((0.,8.));
#337=IFCPOLYLINE((#335,#336));
#338=IFCGRIDAXIS('1',#337,.T.);
#339=IFCCARTESIANPOINT((4.,0.));
#340=IFCCARTESIANPOINT((4.,8.));
#341=IFCPOLYLINE((#339,#340));
#342=IFCGRIDAXIS('2',#341,.T.);
#343=IFCCARTESIANPOINT((8.,0.));
#344=IFCCARTESIANPOINT((8.,8.));
#345=IFCPOLYLINE((#343,#344));
#346=IFCGRIDAXIS('3',#345,.T.);
#347=IFCCARTESIANPOINT((12.,0.));
#348=IFCCARTESIANPOINT((12.,8.));
#349=IFCPOLYLINE((#347,#348));
#350=IFCGRIDAXIS('4',#349,.T.);
#351=IFCRELCONTAINEDINSPATIALSTRUCTURE('1yZwff2TbUPeCiN$EacQm_',$,$,$,(#16,#33,#50,#67,#84,#101,#118,#135,#152,#169,#186,#203,#220,#237,#254,#271,#288,#305,#322),#4);
ENDSEC;
END-ISO-10303-21;
