ISO-10303-21;
HEADER;
FILE_DESCRIPTION(('ViewDefinition[DesignTransferView]'),'2;1');
FILE_NAME('pg-e-engineering-mep.ifc','2026-08-30T21:00:00+08:00',('IFC ClashTrace contributors'),('Open synthetic engineering-context data'),'IfcOpenShell 0.8.5','IFC ClashTrace PG-E realistic building generator','CC0-1.0');
FILE_SCHEMA(('IFC4'));
ENDSEC;
DATA;
#1=IFCPROJECT('0XM6ObmazORh13XcXo2_Sb',$,'PG-E One-storey Community Clinic',$,$,$,'PG-E synthetic engineering-context UAT',(#14),#9);
#2=IFCSITE('1g4GV8M$rI3AX_nBB0LREj',$,'Synthetic Urban Infill Site',$,$,$,$,$,$,$,$,$,$,$);
#3=IFCBUILDING('3oxjdCkjvOBOyX5LCsq11f',$,'Community Clinic Demonstration Building',$,$,$,$,$,$,$,$,$);
#4=IFCBUILDINGSTOREY('3BoHK_WRDJKBEp4x9TJjhD',$,'Ground Floor \X2\00B7\X0\ Consultation and Services',$,$,$,$,$,$,0.);
#5=IFCRELAGGREGATES('38T_bcZo9VpRoTT120QUi6',$,$,$,#1,(#2));
#6=IFCRELAGGREGATES('1CRdqPbkDNmeTIdsP$96gU',$,$,$,#2,(#3));
#7=IFCRELAGGREGATES('3nABxyuMTHmO02MLvcDoUx',$,$,$,#3,(#4));
#8=IFCSIUNIT(*,.LENGTHUNIT.,$,.METRE.);
#9=IFCUNITASSIGNMENT((#8));
#10=IFCCARTESIANPOINT((0.,0.,0.));
#11=IFCDIRECTION((0.,0.,1.));
#12=IFCDIRECTION((1.,0.,0.));
#13=IFCAXIS2PLACEMENT3D(#10,#11,#12);
#14=IFCGEOMETRICREPRESENTATIONCONTEXT($,'Model',3,1.0000000000000001E-05,#13,$);
#15=IFCGEOMETRICREPRESENTATIONSUBCONTEXT('Body','Model',*,*,*,*,#14,$,.MODEL_VIEW.,$);
#16=IFCPIPESEGMENT('0kHcQAV_nIygnF62GFhVV6',$,'CHW-B01 Consultation branch \X2\00B7\X0\ uncoordinated wall crossing',$,$,#30,#25,$,.RIGIDSEGMENT.);
#17=IFCCIRCLEPROFILEDEF(.AREA.,'P-CLASH-WALL circular pipe profile',$,0.074999999999999997);
#18=IFCCARTESIANPOINT((0.,0.,0.));
#19=IFCDIRECTION((1.,0.,0.));
#20=IFCDIRECTION((0.,1.,0.));
#21=IFCAXIS2PLACEMENT3D(#18,#19,#20);
#22=IFCDIRECTION((0.,0.,1.));
#23=IFCEXTRUDEDAREASOLID(#17,#21,#22,2.);
#24=IFCSHAPEREPRESENTATION(#15,'Body','SweptSolid',(#23));
#25=IFCPRODUCTDEFINITIONSHAPE($,$,(#24));
#26=IFCCARTESIANPOINT((3.6000000000000001,2.,2.3999999999999999));
#27=IFCDIRECTION((0.,0.,1.));
#28=IFCDIRECTION((1.,0.,0.));
#29=IFCAXIS2PLACEMENT3D(#26,#27,#28);
#30=IFCLOCALPLACEMENT($,#29);
#31=IFCPIPESEGMENT('3yc9ioc01UhQBlMXZpDij9',$,'CWS-B02 West room branch \X2\00B7\X0\ 49 mm wall clearance',$,$,#45,#40,$,.RIGIDSEGMENT.);
#32=IFCCIRCLEPROFILEDEF(.AREA.,'P-WARNING-49 circular pipe profile',$,0.050000000000000003);
#33=IFCCARTESIANPOINT((0.,0.,0.));
#34=IFCDIRECTION((0.,1.,0.));
#35=IFCDIRECTION((1.,0.,0.));
#36=IFCAXIS2PLACEMENT3D(#33,#34,#35);
#37=IFCDIRECTION((0.,0.,1.));
#38=IFCEXTRUDEDAREASOLID(#32,#36,#37,2.3999999999999999);
#39=IFCSHAPEREPRESENTATION(#15,'Body','SweptSolid',(#38));
#40=IFCPRODUCTDEFINITIONSHAPE($,$,(#39));
#41=IFCCARTESIANPOINT((4.4009999999999998,0.59999999999999998,2.3500000000000001));
#42=IFCDIRECTION((0.,0.,1.));
#43=IFCDIRECTION((1.,0.,0.));
#44=IFCAXIS2PLACEMENT3D(#41,#42,#43);
#45=IFCLOCALPLACEMENT($,#44);
#46=IFCPIPESEGMENT('1HNDB43sfQ4x5W4PIxTOJ9',$,'CWS-B03 East room branch \X2\00B7\X0\ 50 mm boundary',$,$,#60,#55,$,.RIGIDSEGMENT.);
#47=IFCCIRCLEPROFILEDEF(.AREA.,'P-BOUNDARY-50 circular pipe profile',$,0.050000000000000003);
#48=IFCCARTESIANPOINT((0.,0.,0.));
#49=IFCDIRECTION((0.,1.,0.));
#50=IFCDIRECTION((1.,0.,0.));
#51=IFCAXIS2PLACEMENT3D(#48,#49,#50);
#52=IFCDIRECTION((0.,0.,1.));
#53=IFCEXTRUDEDAREASOLID(#47,#51,#52,2.3999999999999999);
#54=IFCSHAPEREPRESENTATION(#15,'Body','SweptSolid',(#53));
#55=IFCPRODUCTDEFINITIONSHAPE($,$,(#54));
#56=IFCCARTESIANPOINT((7.8999999900000004,0.59999999999999998,2.3500000000000001));
#57=IFCDIRECTION((0.,0.,1.));
#58=IFCDIRECTION((1.,0.,0.));
#59=IFCAXIS2PLACEMENT3D(#56,#57,#58);
#60=IFCLOCALPLACEMENT($,#59);
#61=IFCPIPESEGMENT('0WH_3nyePIjue3u6lyosmu',$,'CHW-M01 Central corridor main \X2\00B7\X0\ coordinated below beam',$,$,#75,#70,$,.RIGIDSEGMENT.);
#62=IFCCIRCLEPROFILEDEF(.AREA.,'P-SAFE-200 circular pipe profile',$,0.10000000000000001);
#63=IFCCARTESIANPOINT((0.,0.,0.));
#64=IFCDIRECTION((1.,0.,0.));
#65=IFCDIRECTION((0.,1.,0.));
#66=IFCAXIS2PLACEMENT3D(#63,#64,#65);
#67=IFCDIRECTION((0.,0.,1.));
#68=IFCEXTRUDEDAREASOLID(#62,#66,#67,10.);
#69=IFCSHAPEREPRESENTATION(#15,'Body','SweptSolid',(#68));
#70=IFCPRODUCTDEFINITIONSHAPE($,$,(#69));
#71=IFCCARTESIANPOINT((1.,4.,2.5010178600000001));
#72=IFCDIRECTION((0.,0.,1.));
#73=IFCDIRECTION((1.,0.,0.));
#74=IFCAXIS2PLACEMENT3D(#71,#72,#73);
#75=IFCLOCALPLACEMENT($,#74);
#76=IFCPIPESEGMENT('1qlNGUU5rNzPvBYIzlit3d',$,'HWS-B04 Treatment branch \X2\00B7\X0\ uncoordinated beam crossing',$,$,#90,#85,$,.RIGIDSEGMENT.);
#77=IFCCIRCLEPROFILEDEF(.AREA.,'P-CLASH-BEAM circular pipe profile',$,0.074999999999999997);
#78=IFCCARTESIANPOINT((0.,0.,0.));
#79=IFCDIRECTION((0.,1.,0.));
#80=IFCDIRECTION((1.,0.,0.));
#81=IFCAXIS2PLACEMENT3D(#78,#79,#80);
#82=IFCDIRECTION((0.,0.,1.));
#83=IFCEXTRUDEDAREASOLID(#77,#81,#82,2.);
#84=IFCSHAPEREPRESENTATION(#15,'Body','SweptSolid',(#83));
#85=IFCPRODUCTDEFINITIONSHAPE($,$,(#84));
#86=IFCCARTESIANPOINT((6.2000000000000002,3.,2.9500000000000002));
#87=IFCDIRECTION((0.,0.,1.));
#88=IFCDIRECTION((1.,0.,0.));
#89=IFCAXIS2PLACEMENT3D(#86,#87,#88);
#90=IFCLOCALPLACEMENT($,#89);
#91=IFCPIPESEGMENT('3no6Bh0R1SdAvQyDu1fGGJ',$,'CWS-B05 East consultation branch \X2\00B7\X0\ clear route',$,$,#105,#100,$,.RIGIDSEGMENT.);
#92=IFCCIRCLEPROFILEDEF(.AREA.,'P-CLEAR-EAST circular pipe profile',$,0.050000000000000003);
#93=IFCCARTESIANPOINT((0.,0.,0.));
#94=IFCDIRECTION((0.,1.,0.));
#95=IFCDIRECTION((1.,0.,0.));
#96=IFCAXIS2PLACEMENT3D(#93,#94,#95);
#97=IFCDIRECTION((0.,0.,1.));
#98=IFCEXTRUDEDAREASOLID(#92,#96,#97,2.3999999999999999);
#99=IFCSHAPEREPRESENTATION(#15,'Body','SweptSolid',(#98));
#100=IFCPRODUCTDEFINITIONSHAPE($,$,(#99));
#101=IFCCARTESIANPOINT((10.5,0.69999999999999996,2.3500000000000001));
#102=IFCDIRECTION((0.,0.,1.));
#103=IFCDIRECTION((1.,0.,0.));
#104=IFCAXIS2PLACEMENT3D(#101,#102,#103);
#105=IFCLOCALPLACEMENT($,#104);
#106=IFCPIPESEGMENT('1s6fmd0FzNtAmHJjN6CpcX',$,'CHW-M02 North room main \X2\00B7\X0\ coordination review route',$,$,#120,#115,$,.RIGIDSEGMENT.);
#107=IFCCIRCLEPROFILEDEF(.AREA.,'P-NORTH-MAIN circular pipe profile',$,0.074999999999999997);
#108=IFCCARTESIANPOINT((0.,0.,0.));
#109=IFCDIRECTION((1.,0.,0.));
#110=IFCDIRECTION((0.,1.,0.));
#111=IFCAXIS2PLACEMENT3D(#108,#109,#110);
#112=IFCDIRECTION((0.,0.,1.));
#113=IFCEXTRUDEDAREASOLID(#107,#111,#112,10.);
#114=IFCSHAPEREPRESENTATION(#15,'Body','SweptSolid',(#113));
#115=IFCPRODUCTDEFINITIONSHAPE($,$,(#114));
#116=IFCCARTESIANPOINT((1.,6.,2.4500000000000002));
#117=IFCDIRECTION((0.,0.,1.));
#118=IFCDIRECTION((1.,0.,0.));
#119=IFCAXIS2PLACEMENT3D(#116,#117,#118);
#120=IFCLOCALPLACEMENT($,#119);
#121=IFCPIPESEGMENT('2NV9DAmm1OZueUkvcGuA2s',$,'CWS-B06 Imported branch \X2\00B7\X0\ missing representation',$,$,$,$,$,.RIGIDSEGMENT.);
#122=IFCRELCONTAINEDINSPATIALSTRUCTURE('1I3ywerorMMvN7xu1IYnyI',$,$,$,(#16,#31,#46,#61,#76,#91,#106,#121),#4);
ENDSEC;
END-ISO-10303-21;
